HIERARCHY
ROOT hip
{
	OFFSET 0.000000 0.000000 0.000000 
	CHANNELS 6 Xposition Yposition Zposition Xrotation Zrotation Yrotation
	JOINT abdomen
	{
		OFFSET 0.000000 3.402643 0.000000 
		CHANNELS 3 Xrotation Zrotation Yrotation
		JOINT chest
		{
			OFFSET 0.000000 8.438565 -0.680529 
			CHANNELS 3 Xrotation Zrotation Yrotation
			JOINT neck
			{
				OFFSET 0.000000 10.207942 -0.272212 
				CHANNELS 3 Xrotation Zrotation Yrotation
				JOINT head
				{
					OFFSET 0.000000 3.130431 0.000000 
					CHANNELS 3 Xrotation Zrotation Yrotation
					End Site
					{
						OFFSET 0.000000 3.130435 0.000000 
					}
				}
			}
			JOINT lCollar
			{
				OFFSET 3.470700 6.669187 -0.816635 
				CHANNELS 3 Yrotation Zrotation Xrotation
				JOINT lShldr
				{
					OFFSET 3.198488 0.000000 0.000000 
					CHANNELS 3 Zrotation Yrotation Xrotation
					JOINT lForeArm
					{
						OFFSET 10.139888 0.000000 0.000000 
						CHANNELS 3 Yrotation Zrotation Xrotation
						JOINT lHand
						{
							OFFSET 8.370511 0.000000 0.000000 
							CHANNELS 3 Zrotation Yrotation Xrotation
							End Site
							{
								OFFSET 4.083176 0.000000 0.000000 
							}
						}
					}
				}
			}
			JOINT rCollar
			{
				OFFSET -3.470700 6.669187 -0.816635 
				CHANNELS 3 Yrotation Zrotation Xrotation
				JOINT rShldr
				{
					OFFSET -3.198488 0.000000 0.000000 
					CHANNELS 3 Zrotation Yrotation Xrotation
					JOINT rForeArm
					{
						OFFSET -10.139888 0.000000 0.000000 
						CHANNELS 3 Yrotation Zrotation Xrotation
						JOINT rHand
						{
							OFFSET -8.370511 0.000000 0.000000 
							CHANNELS 3 Zrotation Yrotation Xrotation
							End Site
							{
								OFFSET -4.083176 0.000000 0.000000 
							}
						}
					}
				}
			}
		}
	}
	JOINT lThigh
	{
		OFFSET 5.308129 -1.633274 1.361059 
		CHANNELS 3 Xrotation Zrotation Yrotation
		JOINT lShin
		{
			OFFSET -2.041588 -20.007561 0.000000 
			CHANNELS 3 Xrotation Zrotation Yrotation
			JOINT lFoot
			{
				OFFSET 0.000000 -19.190928 -1.224953 
				CHANNELS 3 Xrotation Yrotation Zrotation
				End Site
				{
					OFFSET 0.000000 -2.449906 4.627600 
				}
			}
		}
	}
	JOINT rThigh
	{
		OFFSET -5.308129 -1.633274 1.361059 
		CHANNELS 3 Xrotation Zrotation Yrotation
		JOINT rShin
		{
			OFFSET 2.041588 -20.007561 0.000000 
			CHANNELS 3 Xrotation Zrotation Yrotation
			JOINT rFoot
			{
				OFFSET 0.000000 -19.190928 -1.224953 
				CHANNELS 3 Xrotation Yrotation Zrotation
				End Site
				{
					OFFSET 0.000000 -2.449906 4.627600 
				}
			}
		}
	}
}
MOTION
Frames: 6
Frame Time: 0.033333
-3.553510 8.512304 6.597648 3.964844 12.480470 83.964844 21.677471 -14.030128 -1.297306 -0.068359 17.460938 8.040038 -8.810477 -15.398966 -5.684122 8.183594 -3.837891 -1.142578 2.000000 -2.000000 0.000000 -81.142578 2.177734 14.277344 -2.228175 -8.776361 9.241460 -2.512627 -4.566864 -0.968275 -2.000000 2.000000 0.000000 42.187500 81.152344 7.499883 0.374179 -5.693205 17.990957 -3.281866 2.939278 -1.447397 -74.064056 6.277808 5.891464 28.488297 -3.712910 -13.776370 0.615583 -0.143729 -1.669201 8.000873 -6.587925 -12.826228 12.678740 2.164990 6.093369 -4.148036 6.052036 -11.265345 
-2.345645 8.619004 6.633183 4.619141 13.134766 85.156250 21.677471 -14.030128 -1.297306 2.265625 16.542969 9.150391 -10.106253 -16.350191 -7.420444 7.578128 -2.910148 -0.869639 2.000000 -2.000000 0.000000 -81.171875 5.322266 8.282158 -1.745808 -8.264025 9.768534 -3.718906 -4.884109 -0.877964 -2.000000 2.000000 0.000000 -59.111324 82.519531 -94.336021 0.994010 -5.839680 18.900431 -13.754329 -0.062443 -1.720185 -79.484985 5.526285 6.824915 29.059645 -3.990327 -14.823228 -2.408503 -0.177016 -0.250400 8.824816 -7.078506 -13.091452 14.795882 2.037905 4.475083 -5.253211 6.007278 -11.320064 
-1.325129 8.701365 6.670088 5.078125 13.535156 86.474609 21.677471 -14.030128 -1.297306 4.013674 16.123047 9.934351 -11.016372 -17.577745 -9.159928 7.275391 -1.992187 -0.605808 2.000000 -2.000000 0.000000 -81.074219 8.496095 4.990234 -1.401151 -8.008728 10.094960 -3.542320 -4.836109 -0.898077 -2.000000 2.000000 0.000000 93.398438 107.558586 61.669472 1.203048 -6.321398 19.544741 -13.938756 -0.123484 -1.721122 -85.650459 4.814131 7.008517 31.442905 -4.264406 -16.040325 -3.435512 -0.232677 0.727749 9.194226 -7.146044 -15.220633 17.539814 1.881291 2.796535 -6.279459 6.033600 -11.729614 
-0.940161 8.752941 6.732811 5.449219 13.388672 87.756172 21.677471 -14.030128 -1.297306 4.912111 15.644533 10.725288 -11.705215 -18.490166 -11.057288 7.255859 -1.162109 -0.361328 2.000000 -2.000000 0.000000 -80.351563 11.679688 2.013765 -0.811534 -7.952001 10.375135 -1.826446 -4.373743 -1.018385 -2.000000 2.000000 0.000000 87.031258 117.177742 57.293842 1.704244 -6.842677 20.498526 -17.422171 -1.113660 -1.687446 -90.973404 4.687326 8.218014 33.223793 -4.871382 -18.590200 -4.810071 -0.238100 1.405217 11.315084 -5.644067 -20.591682 15.912745 1.743974 -0.544443 -6.851272 6.018282 -13.013645 
0.520615 8.723523 6.847050 5.908203 12.929687 89.179688 21.677471 -14.030128 -1.297306 5.615235 14.355468 11.369608 -12.566963 -18.693930 -13.193055 7.050781 -0.380859 -0.117188 2.000000 -2.000000 0.000000 -78.759766 14.355470 0.100079 -0.359100 -7.836165 10.662717 -0.396160 -3.976363 -1.132618 -2.000000 2.000000 0.000000 85.341789 125.625008 56.611328 2.225111 -7.434722 21.486769 -19.853523 -1.821704 -1.620839 -94.573456 5.554850 12.307603 34.227802 -6.107387 -23.971828 -6.578904 -0.395576 3.442950 13.991016 -2.949800 -27.125628 11.608196 1.711509 -5.149066 -7.083135 6.132809 -14.535165 
1.736836 8.544740 6.993845 6.083985 12.021485 90.695396 21.677471 -14.030128 -1.297306 5.751955 13.261719 11.545210 -13.285082 -18.648302 -14.989812 6.777344 0.292969 0.078175 2.000000 -2.000000 0.000000 -76.806641 17.050781 -4.391666 0.503772 -8.043222 10.793144 -13.131442 -7.352804 0.131655 -2.000000 2.000000 0.000000 -94.931641 47.939453 -123.947823 3.001253 -7.962964 22.548824 -21.682409 -2.346930 -1.548299 -96.092072 6.444751 18.300379 34.102005 -7.313549 -29.717955 -8.954054 -0.613411 6.620740 18.444281 1.384872 -32.458378 1.815483 1.742928 -8.118753 -5.964389 6.234844 -15.010895 
